<svg width="800" height="800" viewBox="0 0 800 800" fill="none" xmlns="http://www.w3.org/2000/svg">
<g clip-path="url(#clip0_160_137)">
<path d="M399.55 400C439.106 400 477.774 388.27 510.664 366.294C543.554 344.318 569.188 313.082 584.326 276.537C599.464 239.992 603.424 199.778 595.707 160.982C587.99 122.186 568.942 86.5492 540.971 58.5787C513.001 30.6082 477.364 11.5601 438.568 3.84303C399.772 -3.87401 359.559 0.0866562 323.013 15.2242C286.468 30.3617 255.232 55.9962 233.256 88.886C211.28 121.776 199.55 160.444 199.55 200C199.55 253.043 220.621 303.914 258.129 341.421C295.636 378.929 346.507 400 399.55 400ZM399.55 50.0001C429.217 50.0001 458.218 58.7974 482.886 75.2796C507.553 91.7619 526.779 115.189 538.132 142.598C549.485 170.006 552.456 200.166 546.668 229.264C540.88 258.361 526.594 285.088 505.616 306.066C484.638 327.044 457.911 341.33 428.814 347.118C399.716 352.906 369.556 349.935 342.147 338.582C314.739 327.229 291.312 308.003 274.83 283.336C258.347 258.668 249.55 229.667 249.55 200C249.55 160.218 265.354 122.065 293.484 93.9341C321.614 65.8036 359.767 50.0001 399.55 50.0001ZM450 775C450 781.631 447.366 787.989 442.678 792.678C437.989 797.366 431.63 800 425 800H75C55.1088 800 36.0323 792.098 21.967 778.033C7.9018 763.968 0 744.891 0 725C0.0661713 665.347 23.7927 608.155 65.974 565.974C108.155 523.793 165.347 500.066 225 500H425C431.63 500 437.989 502.634 442.678 507.322C447.366 512.011 450 518.37 450 525C450 531.631 447.366 537.989 442.678 542.678C437.989 547.366 431.63 550 425 550H225C178.587 550 134.075 568.438 101.256 601.256C68.4374 634.075 50 678.587 50 725C50 731.631 52.6339 737.989 57.3223 742.678C62.0107 747.366 68.3696 750 75 750H425C431.63 750 437.989 752.634 442.678 757.322C447.366 762.011 450 768.37 450 775ZM800 625C800 631.631 797.366 637.989 792.678 642.678C787.989 647.366 781.63 650 775 650H650V775C650 781.631 647.366 787.989 642.678 792.678C637.989 797.366 631.63 800 625 800C618.37 800 612.011 797.366 607.322 792.678C602.634 787.989 600 781.631 600 775V650H475C468.37 650 462.011 647.366 457.322 642.678C452.634 637.989 450 631.631 450 625C450 618.37 452.634 612.011 457.322 607.322C462.011 602.634 468.37 600 475 600H600V475C600 468.37 602.634 462.011 607.322 457.322C612.011 452.634 618.37 450 625 450C631.63 450 637.989 452.634 642.678 457.322C647.366 462.011 650 468.37 650 475V600H775C781.63 600 787.989 602.634 792.678 607.322C797.366 612.011 800 618.37 800 625Z" fill="#888888"/>
</g>
<defs>
<clipPath id="clip0_160_137">
<rect width="800" height="800" fill="white"/>
</clipPath>
</defs>
</svg>
