<svg width="42" height="42" viewBox="0 0 42 42" fill="none" xmlns="http://www.w3.org/2000/svg">
<path opacity="0.4" d="M35.07 11.935L24.99 4.88251C22.2425 2.95751 18.025 3.06251 15.3825 5.11001L6.615 11.9525C4.865 13.3175 3.4825 16.1175 3.4825 18.3225V30.3975C3.4825 34.86 7.105 38.5 11.5675 38.5H30.4325C34.895 38.5 38.5175 34.8775 38.5175 30.415V18.55C38.5175 16.1875 36.995 13.2825 35.07 11.935Z" fill="#171717"/>
<path d="M21 32.8125C20.2825 32.8125 19.6875 32.2175 19.6875 31.5V26.25C19.6875 25.5325 20.2825 24.9375 21 24.9375C21.7175 24.9375 22.3125 25.5325 22.3125 26.25V31.5C22.3125 32.2175 21.7175 32.8125 21 32.8125Z" fill="#F4F4F4"/>
</svg>
