<?xml version="1.0" encoding="iso-8859-1"?>
<!-- Uploaded to: SVG Repo, www.svgrepo.com, Generator: SVG Repo Mixer Tools -->
<svg version="1.1" id="Layer_1" xmlns="http://www.w3.org/2000/svg" xmlns:xlink="http://www.w3.org/1999/xlink" 
	 viewBox="0 0 512 512" xml:space="preserve">
<rect x="228.764" y="465.691" style="fill:#595E62;" width="54.465" height="38.126"/>
<polygon style="fill:#AFB6BB;" points="321.358,422.118 321.358,465.691 283.232,465.691 228.768,465.691 190.642,465.691 
	190.642,422.118 "/>
<polygon style="fill:#7E8488;" points="321.358,345.867 321.358,422.118 190.642,422.118 190.642,345.867 256,345.867 "/>
<path style="fill:#FFD311;" d="M256,345.867h-65.358v-1.852C126.808,318.09,81.711,255.564,81.711,182.471
	C81.711,86.178,159.705,8.184,256,8.184s174.289,77.994,174.289,174.289c0,73.092-45.097,135.619-108.931,161.544v1.852H256V345.867
	z"/>
<path style="fill:#FABB1B;" d="M202.588,16.591c-70.131,22.55-120.877,88.231-120.877,165.88
	c0,73.092,45.097,135.619,108.931,161.543v1.853H256h65.358v-1.853c25.342-10.293,47.654-26.425,65.441-46.627
	C291.388,234.303,223.068,133.749,202.588,16.591z"/>
<path d="M256,0C155.384,0,73.528,81.856,73.528,182.471c0,37.022,11.054,72.672,31.967,103.095
	c19.35,28.149,45.877,50.14,76.963,63.869v124.439h38.126V512h70.832v-38.126h38.127V349.435
	c31.085-13.727,57.614-35.718,76.963-63.869c20.913-30.423,31.968-66.073,31.968-103.095C438.472,81.856,356.615,0,256,0z
	 M275.047,495.632H236.95v-21.758h38.097V495.632z M313.174,457.507H198.825v-27.204h114.349L313.174,457.507L313.174,457.507z
	 M198.825,413.935v-59.884h114.349v59.884H198.825z M393.017,276.295c-18.582,27.032-44.426,47.827-74.739,60.138l-3.077,1.25
	h-51.018V147.736l38.452-38.452l-11.574-11.573L256,132.774l-35.063-35.063l-11.573,11.573l38.452,38.452v189.947h-51.018
	l-3.077-1.25c-30.313-12.312-56.156-33.106-74.738-60.138c-19.03-27.683-29.088-60.126-29.088-93.823
	c0-91.59,74.514-166.104,166.105-166.104s166.105,74.514,166.105,166.104C422.105,216.169,412.046,248.612,393.017,276.295z"/>
<g>
	<rect x="217.874" y="375.811" style="fill:#FFFFFF;" width="76.251" height="16.368"/>
	<path style="fill:#FFFFFF;" d="M144.36,171.579h-16.368c0-70.584,57.424-128.008,128.007-128.008v16.368
		C194.441,59.939,144.36,110.021,144.36,171.579z"/>
</g>
</svg>