<svg width="800" height="608" viewBox="0 0 800 608" fill="none" xmlns="http://www.w3.org/2000/svg">
<path d="M0 101.326V506.302C0 562.105 45.5232 607.628 101.326 607.628H428.636C484.438 607.628 529.961 562.105 529.961 506.302V440.71C529.961 429.614 520.987 420.64 509.892 420.64C498.797 420.64 489.823 429.614 489.823 440.71V506.302C489.823 540.078 462.248 567.652 428.472 567.652H101.326C67.5505 567.652 39.9755 540.078 39.9755 506.302V101.326C39.9755 67.5505 67.5505 39.9755 101.326 39.9755H428.636C462.411 39.9755 489.986 67.5505 489.986 101.326V166.918C489.986 178.013 498.96 186.988 510.055 186.988C521.15 186.988 530.124 178.013 530.124 166.918V101.326C530.124 45.5232 484.601 0 428.799 0H101.326C45.5232 0 0 45.36 0 101.326Z" fill="#888888"/>
<path d="M628.84 454.742C632.756 458.658 637.814 460.616 643.035 460.616C648.256 460.616 653.314 458.658 657.23 454.742L794.126 317.846C801.958 310.014 801.958 297.451 794.126 289.619L657.23 152.723C649.398 144.891 636.835 144.891 629.003 152.723C621.171 160.555 621.171 173.119 629.003 180.95L731.797 283.745H356.68C345.584 283.745 336.61 292.719 336.61 303.814C336.61 314.909 345.584 323.883 356.68 323.883H731.634L628.84 426.678C621.008 434.346 621.008 447.073 628.84 454.742Z" fill="#888888"/>
</svg>
