<svg width="77" height="77" viewBox="0 0 77 77" fill="none" xmlns="http://www.w3.org/2000/svg">
<path d="M61.3434 29.26C60.0921 29.26 59.0976 30.2546 59.0976 31.5058V36.575C59.0976 47.9325 49.8576 57.1725 38.5001 57.1725C27.1426 57.1725 17.9026 47.9325 17.9026 36.575V31.4737C17.9026 30.2225 16.908 29.2279 15.6567 29.2279C14.4055 29.2279 13.4109 30.2225 13.4109 31.4737V36.5429C13.4109 49.6008 23.453 60.3487 36.2542 61.5037V68.3375C36.2542 69.5887 37.2488 70.5833 38.5001 70.5833C39.7513 70.5833 40.7459 69.5887 40.7459 68.3375V61.5037C53.5151 60.3808 63.5892 49.6008 63.5892 36.5429V31.4737C63.5571 30.2546 62.5626 29.26 61.3434 29.26Z" fill="#888888"/>
<path d="M38.5 6.41669C30.6717 6.41669 24.3192 12.7692 24.3192 20.5975V37.0242C24.3192 44.8525 30.6717 51.205 38.5 51.205C46.3284 51.205 52.6809 44.8525 52.6809 37.0242V20.5975C52.6809 12.7692 46.3284 6.41669 38.5 6.41669ZM42.703 28.7146C42.4784 29.5488 41.7405 30.0942 40.9063 30.0942C40.7459 30.0942 40.5855 30.0621 40.425 30.03C39.1738 29.6771 37.8584 29.6771 36.6071 30.03C35.5805 30.3188 34.5859 29.7092 34.3292 28.7146C34.0405 27.72 34.65 26.6934 35.6446 26.4367C37.5375 25.9234 39.5267 25.9234 41.4196 26.4367C42.3821 26.6934 42.9596 27.72 42.703 28.7146ZM44.4034 22.4904C44.1146 23.2604 43.4088 23.7096 42.6388 23.7096C42.4142 23.7096 42.2217 23.6775 41.9971 23.6134C39.7513 22.7792 37.2488 22.7792 35.003 23.6134C34.0405 23.9663 32.9496 23.4529 32.5967 22.4904C32.2438 21.5279 32.7571 20.4371 33.7196 20.1163C36.7996 18.9934 40.2005 18.9934 43.2805 20.1163C44.243 20.4692 44.7563 21.5279 44.4034 22.4904Z" fill="#888888"/>
</svg>
