<svg width="38" height="38" viewBox="0 0 38 38" fill="none" xmlns="http://www.w3.org/2000/svg">
<path d="M34.8333 17.2583V6.49166C34.8333 4.11666 33.82 3.16666 31.3025 3.16666H24.9058C22.3883 3.16666 21.375 4.11666 21.375 6.49166V17.2583C21.375 19.6333 22.3883 20.5833 24.9058 20.5833H31.3025C33.82 20.5833 34.8333 19.6333 34.8333 17.2583Z" stroke="#848484" stroke-width="1.5" stroke-linecap="round" stroke-linejoin="round"/>
<path d="M34.8333 31.5083V28.6583C34.8333 26.2833 33.82 25.3333 31.3025 25.3333H24.9058C22.3883 25.3333 21.375 26.2833 21.375 28.6583V31.5083C21.375 33.8833 22.3883 34.8333 24.9058 34.8333H31.3025C33.82 34.8333 34.8333 33.8833 34.8333 31.5083Z" stroke="#848484" stroke-width="1.5" stroke-linecap="round" stroke-linejoin="round"/>
<path d="M16.625 20.7417V31.5083C16.625 33.8833 15.6116 34.8333 13.0941 34.8333H6.69746C4.17996 34.8333 3.16663 33.8833 3.16663 31.5083V20.7417C3.16663 18.3667 4.17996 17.4167 6.69746 17.4167H13.0941C15.6116 17.4167 16.625 18.3667 16.625 20.7417Z" stroke="#848484" stroke-width="1.5" stroke-linecap="round" stroke-linejoin="round"/>
<path d="M16.625 6.49166V9.34166C16.625 11.7167 15.6116 12.6667 13.0941 12.6667H6.69746C4.17996 12.6667 3.16663 11.7167 3.16663 9.34166V6.49166C3.16663 4.11666 4.17996 3.16666 6.69746 3.16666H13.0941C15.6116 3.16666 16.625 4.11666 16.625 6.49166Z" stroke="#848484" stroke-width="1.5" stroke-linecap="round" stroke-linejoin="round"/>
</svg>
