<?xml version="1.0" encoding="iso-8859-1"?>
<!-- Uploaded to: SVG Repo, www.svgrepo.com, Generator: SVG Repo Mixer Tools -->
<svg version="1.1" id="Layer_1" xmlns="http://www.w3.org/2000/svg" xmlns:xlink="http://www.w3.org/1999/xlink" 
	 viewBox="0 0 512.001 512.001" xml:space="preserve">
<rect x="231.176" y="241.168" style="fill:#464655;" width="49.654" height="94.646"/>
<path style="fill:#5B5D6E;" d="M448.106,155.369H63.894c-30.769,0-55.713,24.944-55.713,55.713l0,0
	c0,30.769,24.944,55.713,55.713,55.713h384.213c30.769,0,55.713-24.944,55.713-55.713l0,0
	C503.82,180.314,478.876,155.369,448.106,155.369z"/>
<path style="fill:#717287;" d="M33.268,211.083L33.268,211.083c0-30.769,24.944-55.713,55.713-55.713H63.894
	c-30.769,0-55.713,24.944-55.713,55.713l0,0c0,30.769,24.944,55.713,55.713,55.713h25.088
	C58.212,266.796,33.268,241.852,33.268,211.083z"/>
<circle style="fill:#464655;" cx="77.99" cy="211.085" r="21.727"/>
<circle style="fill:#9BDC6E;" cx="157.855" cy="211.085" r="16.909"/>
<circle style="fill:#464655;" cx="430.263" cy="211.085" r="16.909"/>
<circle style="fill:#FF6465;" cx="225.428" cy="211.085" r="16.909"/>
<path style="fill:#5B5D6E;" d="M329.912,330.08c-16.886-11.956-37.226-18.053-57.916-18.053h-31.992
	c-20.691,0-41.029,6.098-57.916,18.053c-10.394,7.358-19.055,16.505-19.055,26.552h185.934
	C348.967,346.585,340.306,337.439,329.912,330.08z"/>
<path style="fill:#717287;" d="M209.358,330.08c16.886-11.956,37.226-18.053,57.916-18.053h-27.269
	c-20.691,0-41.029,6.098-57.916,18.053c-10.394,7.358-19.055,16.505-19.055,26.552h27.269
	C190.302,346.585,198.964,337.439,209.358,330.08z"/>
<path d="M48.082,211.083c0,16.491,13.416,29.908,29.908,29.908s29.908-13.416,29.908-29.908s-13.416-29.908-29.908-29.908
	S48.082,194.592,48.082,211.083z M91.536,211.083c0,7.47-6.077,13.546-13.546,13.546c-7.47,0-13.546-6.077-13.546-13.546
	s6.077-13.546,13.546-13.546C85.459,197.537,91.536,203.613,91.536,211.083z"/>
<path d="M157.852,236.173c13.835,0,25.09-11.256,25.09-25.09c0-13.835-11.254-25.09-25.09-25.09s-25.091,11.256-25.091,25.09
	S144.017,236.173,157.852,236.173z M157.852,202.355c4.812,0,8.728,3.916,8.728,8.728s-3.916,8.728-8.728,8.728
	c-4.814,0-8.729-3.916-8.729-8.728C149.123,206.269,153.038,202.355,157.852,202.355z"/>
<path d="M455.356,211.083c0-13.835-11.254-25.09-25.09-25.09s-25.09,11.256-25.09,25.09s11.254,25.09,25.09,25.09
	S455.356,224.917,455.356,211.083z M421.538,211.083c0-4.814,3.916-8.728,8.728-8.728s8.728,3.916,8.728,8.728
	s-3.916,8.728-8.728,8.728S421.538,215.895,421.538,211.083z"/>
<path d="M200.336,211.083c0,13.834,11.256,25.09,25.091,25.09s25.09-11.256,25.09-25.09c0-13.835-11.254-25.09-25.09-25.09
	S200.336,197.248,200.336,211.083z M234.155,211.083c0,4.812-3.916,8.728-8.728,8.728c-4.814,0-8.729-3.916-8.729-8.728
	c0-4.814,3.916-8.728,8.729-8.728C230.239,202.355,234.155,206.269,234.155,211.083z"/>
<path d="M141.764,163.55h306.343c26.209,0,47.532,21.323,47.532,47.533c0,26.209-21.323,47.532-47.532,47.532H397.66
	c-4.519,0-8.181,3.663-8.181,8.181s3.662,8.181,8.181,8.181h50.448c35.232,0,63.894-28.663,63.894-63.895
	c0-35.231-28.662-63.894-63.894-63.894H141.764c-4.519,0-8.181,3.663-8.181,8.181S137.245,163.55,141.764,163.55z"/>
<path d="M63.895,274.977h159.098v30.142c-16.567,2.512-32.106,8.708-45.632,18.284c-14.935,10.575-22.508,21.754-22.508,33.229
	c0,4.518,3.662,8.181,8.181,8.181h185.935c4.519,0,8.181-3.663,8.181-8.181c0-10.578-6.452-20.926-19.177-30.757
	c-3.574-2.762-8.712-2.104-11.475,1.473c-2.763,3.576-2.104,8.713,1.473,11.476c4.302,3.324,7.563,6.563,9.72,9.629H174.333
	c2.619-3.725,6.84-7.7,12.482-11.695c13.108-9.28,28.496-14.796,44.907-16.187c0.047-0.003,0.094,0,0.142-0.004
	c2.8-0.237,5.539-0.358,8.14-0.358h31.993c2.6,0,5.339,0.12,8.14,0.358c0.011,0.001,0.022,0,0.033,0.001
	c6.858,0.582,13.596,1.888,20.117,3.927c4.311,1.348,8.901-1.056,10.249-5.368c1.348-4.313-1.055-8.901-5.368-10.249
	c-5.281-1.65-10.681-2.896-16.16-3.736v-30.163h75.927c4.519,0,8.181-3.663,8.181-8.181c0-4.518-3.662-8.181-8.181-8.181h-84.108
	h-49.654H63.895c-26.21-0.002-47.533-21.326-47.533-47.534s21.323-47.532,47.533-47.532h45.147c4.519,0,8.181-3.663,8.181-8.181
	s-3.662-8.181-8.181-8.181H63.895C28.663,147.188,0,175.851,0,211.083S28.663,274.977,63.895,274.977z M239.355,274.977h33.292
	v28.871c-0.217-0.001-0.433-0.002-0.65-0.002h-31.993c-0.216,0-0.432,0-0.65,0.002v-28.871H239.355z"/>
</svg>