<svg width="80" height="80" viewBox="0 0 80 80" fill="none" xmlns="http://www.w3.org/2000/svg">
<g clip-path="url(#clip0_32_1421)">
<path d="M57.0211 57H37.0211V29.9324L54.3143 39.4061L57.0211 57Z" fill="#2F2E41"/>
<path d="M40.7158 52.2228C47.8871 52.2228 53.7006 46.4093 53.7006 39.238C53.7006 32.0667 47.8871 26.2532 40.7158 26.2532C33.5445 26.2532 27.731 32.0667 27.731 39.238C27.731 46.4093 33.5445 52.2228 40.7158 52.2228Z" fill="#FFB6B6"/>
<path d="M33.2617 54.1428L32.675 48.2129L44.3895 46.0225L51.3068 62.8646L39.2767 76.6992L30.7053 59.857L33.2617 54.1428Z" fill="#FFB6B6"/>
<path d="M68.7278 67.833C68.582 67.9849 68.4331 68.1353 68.2842 68.2842C67.812 68.7564 67.3308 69.215 66.8391 69.6601C59.4707 76.3428 50.0165 80 40 80C30.7654 80 22.009 76.8917 14.9248 71.1699C14.9203 71.1669 14.9173 71.1639 14.9128 71.1594C14.6977 70.9864 14.4857 70.8105 14.2737 70.6315C14.3113 70.5233 14.3519 70.4165 14.3925 70.3112C16.6707 64.3759 21.1699 61.4721 23.9008 60.2015C25.2541 59.5714 26.1729 59.3413 26.1729 59.3413L29.3789 53.5669L31.6361 57.7774L33.2992 60.8812L40.1233 73.6135L46.0105 58.9549L47.8346 54.4105L48.3023 53.2466L50.5263 54.9774L52.6316 56.615L56.8707 57.5503L60.3098 58.3097L64.9804 59.3413C66.8692 60.8797 68.018 63.806 68.6602 67.4421C68.6842 67.5714 68.7068 67.7022 68.7278 67.833Z" fill="#DA602B"/>
<path d="M33.8856 24.4817C35.4673 21.8248 38.3722 20.0019 41.4525 19.7333C44.5328 19.4646 47.7095 20.757 49.7273 23.0999C50.9296 24.4961 51.718 26.2059 52.8901 27.6276C55.4122 30.6871 59.7129 32.4759 60.8147 36.2848C61.2955 37.9469 61.056 39.7214 60.8127 41.4345C60.6042 42.9027 60.3957 44.371 60.1871 45.8393C60.0249 46.982 59.8693 48.1866 60.2977 49.2582C60.8004 50.5155 62.0033 51.3389 62.7811 52.4473C64.1045 54.3333 64.0078 57.0945 62.5556 58.8831C61.9258 59.6589 61.0909 60.2439 60.4306 60.9938C59.7704 61.7437 59.2806 62.7691 59.5571 63.7292C60.0869 65.5685 62.9714 66.0096 63.2877 67.8973C63.4495 68.8625 62.7829 69.8263 61.9094 70.2676C61.036 70.709 60.0078 70.7218 59.0364 70.6037C55.3441 70.1549 51.9255 67.8479 50.1279 64.5917C48.3302 61.3356 48.1993 57.2134 49.7867 53.8498C51.0906 51.0872 53.5138 48.646 53.4874 45.5912C53.4731 43.9271 52.7097 42.3727 51.9633 40.8852C50.4356 37.8408 48.9079 34.7963 47.3802 31.7518C46.5619 30.121 45.6122 28.3636 43.9274 27.663C42.6253 27.1215 41.148 27.3315 39.7553 27.553C38.3627 27.7745 36.8874 27.99 35.5815 27.458C34.2755 26.926 33.2888 25.3452 33.911 24.0798" fill="#2F2E41"/>
<path d="M36.1611 24.6205C33.6525 23.7948 30.8383 25.1204 29.1399 27.143C27.4415 29.1656 26.6177 31.7604 25.8328 34.2822C25.3833 35.7267 24.9337 37.1712 24.4842 38.6157C24.0613 39.9745 23.6384 41.3334 23.2155 42.6922C22.7181 44.2905 22.2166 45.9885 22.6248 47.6119C22.9199 48.7855 23.6793 49.8512 23.6957 51.0612C23.7128 52.3252 22.9212 53.4349 22.2275 54.4917C21.5338 55.5485 20.8826 56.804 21.2131 58.0242C21.7158 59.8801 24.2961 60.9002 24.1547 62.8178C24.1075 63.4577 23.7374 64.0497 23.7441 64.6913C23.7526 65.5077 24.3918 66.2132 25.1407 66.5384C25.8896 66.8637 26.7319 66.8814 27.5483 66.867C30.0522 66.823 32.5517 66.5256 34.9961 65.9809C35.9365 65.7714 36.8929 65.5143 37.6757 64.9526C38.4586 64.3909 39.0425 63.4602 38.9407 62.5021C38.7819 61.0091 37.1766 60.162 36.3665 58.8979C35.5708 57.6562 35.5893 56.0829 35.2462 54.6486C34.7746 52.6774 33.61 50.9565 32.7358 49.1279C29.449 42.2533 30.5996 33.4908 35.5497 27.6977C35.9873 27.1855 36.4655 26.6702 36.6481 26.0217C36.8307 25.3732 36.5953 24.5469 35.9609 24.3201" fill="#2F2E41"/>
<path d="M68.2842 11.7158C60.7293 4.1609 50.6842 0 40 0C29.3158 0 19.2707 4.1609 11.7158 11.7158C4.1609 19.2707 0 29.3158 0 40C0 49.7519 3.46616 58.9714 9.81804 66.2511C10.4241 66.9474 11.0571 67.6256 11.7158 68.2842C11.8707 68.4391 12.0271 68.594 12.185 68.7444C12.606 69.1519 13.0346 69.5504 13.4707 69.9368C13.7353 70.1729 14.003 70.4045 14.2737 70.6316C14.4857 70.8105 14.6977 70.9865 14.9128 71.1594C14.9173 71.1639 14.9203 71.1669 14.9248 71.1699C22.009 76.8917 30.7654 80 40 80C50.0165 80 59.4707 76.3428 66.8391 69.6601C67.3308 69.215 67.812 68.7564 68.2842 68.2842C68.4331 68.1353 68.582 67.985 68.7278 67.8331C69.1338 67.415 69.5278 66.9895 69.9128 66.5579C76.4346 59.2316 80 49.8902 80 40C80 29.3158 75.8391 19.2707 68.2842 11.7158ZM69.815 66.1835C69.4391 66.6105 69.0541 67.0316 68.6601 67.4421C68.0466 68.0812 67.4135 68.7007 66.7594 69.2977C66.5113 69.5263 66.2601 69.7489 66.006 69.9699C63.4391 72.203 60.582 74.1098 57.5008 75.6286C56.4195 76.1624 55.3113 76.6481 54.1774 77.0827C49.7729 78.7729 44.9925 79.6992 40 79.6992C35.182 79.6992 30.5624 78.8361 26.2872 77.2571C24.5323 76.6105 22.8361 75.8421 21.2075 74.9624C20.9684 74.8331 20.7308 74.7022 20.4947 74.5684C19.2526 73.8647 18.0511 73.0962 16.8977 72.2662C16.0361 71.6481 15.2 70.997 14.3925 70.3113C14.1098 70.0722 13.8301 69.8301 13.5549 69.5819C13.1068 69.1834 12.6677 68.7729 12.2391 68.3519C11.4271 67.5564 10.6511 66.7278 9.90978 65.8661C3.92331 58.9128 0.300752 49.8722 0.300752 40C0.300752 18.1098 18.1098 0.300752 40 0.300752C61.8902 0.300752 79.6992 18.1098 79.6992 40C79.6992 50.0241 75.9654 59.191 69.815 66.1835Z" fill="#3F3D56"/>
</g>
<defs>
<clipPath id="clip0_32_1421">
<rect width="80" height="80" fill="white"/>
</clipPath>
</defs>
</svg>
