<svg width="80" height="80" viewBox="0 0 80 80" fill="none" xmlns="http://www.w3.org/2000/svg">
<g clip-path="url(#clip0_32_1799)">
<path d="M40.7158 52.223C47.8871 52.223 53.7006 46.4095 53.7006 39.2382C53.7006 32.0669 47.8871 26.2534 40.7158 26.2534C33.5445 26.2534 27.731 32.0669 27.731 39.2382C27.731 46.4095 33.5445 52.223 40.7158 52.223Z" fill="#FFB6B6"/>
<path d="M33.2617 54.1433L32.675 48.2134L44.3895 46.0229L51.3068 62.8651L39.2767 76.6996L30.7053 59.8575L33.2617 54.1433Z" fill="#FFB6B6"/>
<path d="M32.4868 51.1816L35.0479 51.7602C35.0479 51.7602 33.0346 45.3761 33.718 44.7666C34.4013 44.1571 36.0759 45.1175 36.0759 45.1175L37.8356 47.0904L39.979 44.9081C39.979 44.9081 42.3061 42.0145 43.2172 41.2019C44.1284 40.3892 42.6649 37.3727 42.6649 37.3727C42.6649 37.3727 56.1824 33.7278 51.1525 27.1713C51.1525 27.1713 48.2035 22.0308 47.2432 23.7053C46.2828 25.3799 45.1377 22.7203 45.1377 22.7203L41.6408 23.3853C41.6408 23.3853 34.7395 19.3161 28.1892 28.0213C21.639 36.7266 32.4868 51.1816 32.4868 51.1816Z" fill="#2F2E41"/>
<path d="M65.1369 71.1204C58.0406 76.8738 49.2617 80.0001 40 80.0001C31.5429 80.0001 23.4872 77.3926 16.7489 72.5595C16.7609 72.4332 16.773 72.3084 16.7835 72.1836C16.9624 70.2287 17.1218 68.3279 17.2271 66.752C17.6346 60.6332 31.9098 56.555 31.9098 56.555C31.9098 56.555 31.9745 56.6196 32.1038 56.7324C32.8918 57.4242 36.0903 59.9324 41.6993 60.6332C46.7008 61.2587 48.3474 58.2918 48.8451 56.8708C48.9955 56.4377 49.0406 56.1475 49.0406 56.1475L63.7233 63.0813C64.6812 64.4497 65.0557 67.3971 65.1294 70.7099C65.1324 70.8467 65.1354 70.9821 65.1369 71.1204Z" fill="#DA602B"/>
<path d="M68.2842 11.7158C60.7293 4.1609 50.6842 0 40 0C29.3158 0 19.2707 4.1609 11.7158 11.7158C4.16091 19.2707 0 29.3158 0 40C0 49.7519 3.46617 58.9714 9.81805 66.2511C10.4241 66.9474 11.0571 67.6256 11.7158 68.2842C11.8707 68.4391 12.0271 68.594 12.185 68.7444C12.606 69.1519 13.0346 69.5504 13.4707 69.9368C13.7353 70.1729 14.003 70.4045 14.2737 70.6316C14.4857 70.8105 14.6978 70.9865 14.9128 71.1594C14.9173 71.1639 14.9203 71.1669 14.9248 71.1699C15.5218 71.6511 16.1293 72.1143 16.7489 72.5594C23.4872 77.3925 31.5429 80 40 80C49.2617 80 58.0406 76.8737 65.1368 71.1203C65.7158 70.6511 66.2827 70.1639 66.8391 69.6601C67.3308 69.215 67.812 68.7564 68.2842 68.2842C68.4331 68.1353 68.582 67.985 68.7278 67.8331C69.1338 67.415 69.5278 66.9895 69.9128 66.5579C76.4346 59.2316 80 49.8902 80 40C80 29.3158 75.8391 19.2707 68.2842 11.7158ZM69.815 66.1835C69.4391 66.6105 69.0541 67.0316 68.6601 67.4421C68.0466 68.0812 67.4135 68.7007 66.7594 69.2977C66.5113 69.5263 66.2601 69.7489 66.006 69.9699C65.7173 70.2211 65.4256 70.4677 65.1293 70.7098C62.794 72.6271 60.2361 74.2812 57.5008 75.6286C56.4195 76.1624 55.3113 76.6481 54.1774 77.0827C49.7729 78.7729 44.9925 79.6992 40 79.6992C35.182 79.6992 30.5624 78.8361 26.2872 77.2571C24.5323 76.6105 22.8361 75.8421 21.2075 74.9624C20.9684 74.8331 20.7308 74.7023 20.4947 74.5684C19.2526 73.8647 18.0511 73.0962 16.8978 72.2662C16.8602 72.2391 16.8211 72.2105 16.7835 72.1835C15.9624 71.591 15.1639 70.9669 14.3925 70.3113C14.1098 70.0722 13.8301 69.8301 13.5549 69.582C13.1068 69.1835 12.6677 68.7729 12.2391 68.3519C11.4271 67.5564 10.6511 66.7278 9.90978 65.8662C3.92331 58.9128 0.300752 49.8722 0.300752 40C0.300752 18.1098 18.1098 0.300752 40 0.300752C61.8902 0.300752 79.6992 18.1098 79.6992 40C79.6992 50.0241 75.9654 59.191 69.815 66.1835Z" fill="#3F3D56"/>
</g>
<defs>
<clipPath id="clip0_32_1799">
<rect width="80" height="80" fill="white"/>
</clipPath>
</defs>
</svg>
