<svg width="67" height="67" viewBox="0 0 67 67" fill="none" xmlns="http://www.w3.org/2000/svg">
<path d="M33.5 0C52.0297 0 67 14.9703 67 33.5C67 52.0297 52.0297 67 33.5 67C14.9703 67 0 52.0297 0 33.5C0 14.9703 14.9703 0 33.5 0Z" fill="#EC5E40"/>
<mask id="mask0_32_1436" style="mask-type:luminance" maskUnits="userSpaceOnUse" x="0" y="0" width="67" height="67">
<path d="M33.5 0C52.0297 0 67 14.9703 67 33.5C67 52.0297 52.0297 67 33.5 67C14.9703 67 0 52.0297 0 33.5C0 14.9703 14.9703 0 33.5 0Z" fill="white"/>
</mask>
<g mask="url(#mask0_32_1436)">
<path d="M13.6094 67C13.6094 57.2641 22.5078 49.2031 33.5 49.2031C44.3875 49.2031 53.3906 57.2641 53.3906 67" fill="#316CFF"/>
</g>
<mask id="mask1_32_1436" style="mask-type:luminance" maskUnits="userSpaceOnUse" x="0" y="0" width="67" height="67">
<path d="M33.5 0C52.0297 0 67 14.9703 67 33.5C67 52.0297 52.0297 67 33.5 67C14.9703 67 0 52.0297 0 33.5C0 14.9703 14.9703 0 33.5 0Z" fill="white"/>
</mask>
<g mask="url(#mask1_32_1436)">
<path d="M33.5 58.625C36.969 58.625 39.7812 55.8128 39.7812 52.3438C39.7812 48.8747 36.969 46.0625 33.5 46.0625C30.031 46.0625 27.2188 48.8747 27.2188 52.3438C27.2188 55.8128 30.031 58.625 33.5 58.625Z" fill="white"/>
</g>
<mask id="mask2_32_1436" style="mask-type:luminance" maskUnits="userSpaceOnUse" x="0" y="0" width="67" height="67">
<path d="M33.5 0C52.0297 0 67 14.9703 67 33.5C67 52.0297 52.0297 67 33.5 67C14.9703 67 0 52.0297 0 33.5C0 14.9703 14.9703 0 33.5 0Z" fill="white"/>
</mask>
<g mask="url(#mask2_32_1436)">
<path d="M37.7922 47.4233V52.239C37.7922 54.6468 35.8031 56.5312 33.5 56.5312C32.3485 56.5312 31.1969 56.0077 30.4641 55.2749C29.7313 54.4374 29.2078 53.3905 29.2078 52.239V47.4233H37.7922Z" fill="#F7BE8F"/>
</g>
<mask id="mask3_32_1436" style="mask-type:luminance" maskUnits="userSpaceOnUse" x="0" y="0" width="67" height="67">
<path d="M33.5 0C52.0297 0 67 14.9703 67 33.5C67 52.0297 52.0297 67 33.5 67C14.9703 67 0 52.0297 0 33.5C0 14.9703 14.9703 0 33.5 0Z" fill="white"/>
</mask>
<g mask="url(#mask3_32_1436)">
<path d="M38.0016 50.5641C36.5359 51.0875 35.0703 51.2969 33.5 51.2969C31.9297 51.2969 30.4641 51.0875 28.9984 50.5641L27.2188 49.7266C23.8687 47.8422 21.5656 44.7016 21.0422 41.1422C20.9375 40.5141 20.9375 39.9906 20.9375 39.4672C20.9375 38.4203 20.9375 36.2219 20.9375 34.3375C20.9375 32.5578 20.9375 24.0781 20.9375 24.0781H46.0625C46.0625 24.0781 46.0625 32.5578 46.0625 34.3375C46.0625 36.2219 46.0625 38.3156 46.0625 39.4672C46.0625 39.9906 46.0625 40.6187 45.9578 41.1422C45.7484 42.7125 45.225 44.0734 44.3875 45.4344C43.3406 47.2141 41.7703 48.6797 39.7812 49.7266C39.1531 50.0406 38.6297 50.25 38.0016 50.5641Z" fill="#FAD3A1"/>
</g>
<mask id="mask4_32_1436" style="mask-type:luminance" maskUnits="userSpaceOnUse" x="0" y="0" width="67" height="67">
<path d="M33.5 0C52.0297 0 67 14.9703 67 33.5C67 52.0297 52.0297 67 33.5 67C14.9703 67 0 52.0297 0 33.5C0 14.9703 14.9703 0 33.5 0Z" fill="white"/>
</mask>
<g mask="url(#mask4_32_1436)">
<path d="M27.7422 33.5C28.5797 33.5 29.3125 34.2328 29.3125 35.0703C29.3125 35.9078 28.5797 36.6406 27.7422 36.6406C26.9047 36.6406 26.1719 35.9078 26.1719 35.0703C26.1719 34.2328 26.9047 33.5 27.7422 33.5Z" fill="#262647"/>
</g>
<mask id="mask5_32_1436" style="mask-type:luminance" maskUnits="userSpaceOnUse" x="0" y="0" width="67" height="67">
<path d="M33.5 0C52.0297 0 67 14.9703 67 33.5C67 52.0297 52.0297 67 33.5 67C14.9703 67 0 52.0297 0 33.5C0 14.9703 14.9703 0 33.5 0Z" fill="white"/>
</mask>
<g mask="url(#mask5_32_1436)">
<path d="M37.6875 35.0703C37.6875 34.2328 38.4203 33.5 39.2578 33.5C40.0953 33.5 40.8281 34.2328 40.8281 35.0703C40.8281 35.9078 40.0953 36.6406 39.2578 36.6406C38.4203 36.6406 37.6875 35.9078 37.6875 35.0703Z" fill="#262647"/>
</g>
<mask id="mask6_32_1436" style="mask-type:luminance" maskUnits="userSpaceOnUse" x="0" y="0" width="67" height="67">
<path d="M33.5 0C52.0297 0 67 14.9703 67 33.5C67 52.0297 52.0297 67 33.5 67C14.9703 67 0 52.0297 0 33.5C0 14.9703 14.9703 0 33.5 0Z" fill="white"/>
</mask>
<g mask="url(#mask6_32_1436)">
<path d="M34.5469 40.8281C34.5469 41.4563 34.1281 41.875 33.5 41.875C32.8719 41.875 32.4531 41.4563 32.4531 40.8281H34.5469Z" fill="#F7BE8F"/>
</g>
<mask id="mask7_32_1436" style="mask-type:luminance" maskUnits="userSpaceOnUse" x="0" y="0" width="67" height="67">
<path d="M33.5 0C52.0297 0 67 14.9703 67 33.5C67 52.0297 52.0297 67 33.5 67C14.9703 67 0 52.0297 0 33.5C0 14.9703 14.9703 0 33.5 0Z" fill="white"/>
</mask>
<g mask="url(#mask7_32_1436)">
<path d="M33.5 46.5859C31.825 46.5859 30.2547 45.6437 29.4172 44.2827C29.3125 43.9687 29.3125 43.6546 29.6265 43.5499C29.8359 43.4452 30.15 43.4452 30.3594 43.7593C30.9875 44.9109 32.2437 45.6437 33.5 45.6437C34.7562 45.6437 36.0125 44.9109 36.6406 43.7593C36.7453 43.5499 37.0594 43.4452 37.3734 43.5499C37.5828 43.6546 37.6875 43.9687 37.5828 44.2827C36.7453 45.6437 35.175 46.5859 33.5 46.5859Z" fill="#F4B28E"/>
</g>
<mask id="mask8_32_1436" style="mask-type:luminance" maskUnits="userSpaceOnUse" x="0" y="0" width="67" height="67">
<path d="M33.5 0C52.0297 0 67 14.9703 67 33.5C67 52.0297 52.0297 67 33.5 67C14.9703 67 0 52.0297 0 33.5C0 14.9703 14.9703 0 33.5 0Z" fill="white"/>
</mask>
<g mask="url(#mask8_32_1436)">
<path d="M48.1562 27.2187V34.5468H46.0625V28.8937L40.4094 24.4968C38.8391 28.6843 34.2328 31.6155 29.6266 31.6155C26.4859 31.6155 22.9266 30.2546 20.9375 28.0562V28.9984V34.5468H18.8438V25.6484C18.8438 22.403 19.8906 19.7859 21.6703 17.7968C24.3922 14.6562 28.475 12.4577 32.4531 12.5624C35.6984 12.6671 38.1063 13.714 41.875 12.5624C42.1891 13.0859 42.3984 13.8187 42.1891 14.8655C42.0844 15.703 41.9797 15.9124 41.875 16.4359C45.5391 19.1577 48.1562 22.1937 48.1562 27.2187Z" fill="#262647"/>
</g>
<mask id="mask9_32_1436" style="mask-type:luminance" maskUnits="userSpaceOnUse" x="0" y="0" width="67" height="67">
<path d="M33.5 0C52.0297 0 67 14.9703 67 33.5C67 52.0297 52.0297 67 33.5 67C14.9703 67 0 52.0297 0 33.5C0 14.9703 14.9703 0 33.5 0Z" fill="white"/>
</mask>
<g mask="url(#mask9_32_1436)">
<path d="M20.9375 38.7344C19.1578 38.7344 17.7969 37.3734 17.7969 35.5938C17.7969 34.7562 18.1109 33.9187 18.7391 33.3953C19.2625 32.8719 20.1 32.4531 20.9375 32.4531V38.7344Z" fill="#F7BE8F"/>
</g>
<mask id="mask10_32_1436" style="mask-type:luminance" maskUnits="userSpaceOnUse" x="0" y="0" width="67" height="67">
<path d="M33.5 0C52.0297 0 67 14.9703 67 33.5C67 52.0297 52.0297 67 33.5 67C14.9703 67 0 52.0297 0 33.5C0 14.9703 14.9703 0 33.5 0Z" fill="white"/>
</mask>
<g mask="url(#mask10_32_1436)">
<path d="M46.0625 38.7344C47.8422 38.7344 49.2031 37.3734 49.2031 35.5938C49.2031 34.7562 48.8891 33.9187 48.2609 33.3953C47.7375 32.7672 46.9 32.4531 46.0625 32.4531V38.7344Z" fill="#F7BE8F"/>
</g>
</svg>
