<?xml version="1.0" encoding="iso-8859-1"?>
<!-- Uploaded to: SVG Repo, www.svgrepo.com, Generator: SVG Repo Mixer Tools -->
<svg height="800px" width="800px" version="1.1" id="Layer_1" xmlns="http://www.w3.org/2000/svg" xmlns:xlink="http://www.w3.org/1999/xlink" 
	 viewBox="0 0 512 512" xml:space="preserve">
<g transform="translate(1 1)">
	<path style="fill:#FFDD09;" d="M75.8,468.333h358.4V41.667H75.8V468.333z"/>
	<path style="fill:#FFFFFF;" d="M58.733,468.333H75.8V41.667H58.733V468.333z"/>
	<path style="fill:#FD9808;" d="M434.2,468.333h17.067V41.667H434.2V468.333z"/>
	<path style="fill:#FFDD09;" d="M442.733,468.333H67.267V485.4c0,9.387,7.68,17.067,17.067,17.067h341.333
		c9.387,0,17.067-7.68,17.067-17.067V468.333z"/>
	<path style="fill:#FFFFFF;" d="M67.267,485.4v-17.067h-25.6V485.4c0,9.387,7.68,17.067,17.067,17.067h25.6
		C74.947,502.467,67.267,494.787,67.267,485.4"/>
	<path style="fill:#FD9808;" d="M442.733,468.333V485.4c0,9.387-7.68,17.067-17.067,17.067h25.6c9.387,0,17.067-7.68,17.067-17.067
		v-17.067H442.733z"/>
	<path style="fill:#FFDD09;" d="M425.667,7.533H84.333c-9.387,0-17.067,7.68-17.067,17.067s7.68,17.067,17.067,17.067h341.333
		c9.387,0,17.067-7.68,17.067-17.067S435.053,7.533,425.667,7.533"/>
	<path style="fill:#FD9808;" d="M451.267,41.667c9.387,0,17.067-7.68,17.067-17.067s-7.68-17.067-17.067-17.067h-25.6
		c9.387,0,17.067,7.68,17.067,17.067s-7.68,17.067-17.067,17.067"/>
	<path style="fill:#FFFFFF;" d="M84.333,41.667c-9.387,0-17.067-7.68-17.067-17.067s7.68-17.067,17.067-17.067h-25.6
		c-9.387,0-17.067,7.68-17.067,17.067s7.68,17.067,17.067,17.067"/>
	<g>
		<path style="fill:#54C9FD;" d="M92.867,237.933h145.067V75.8H92.867V237.933z"/>
		<path style="fill:#54C9FD;" d="M272.067,237.933h145.067V75.8H272.067V237.933z"/>
		<path style="fill:#54C9FD;" d="M272.067,434.2h145.067V272.067H272.067V434.2z"/>
	</g>
	<path style="fill:#FCC309;" d="M417.133,434.2V272.067h-25.6C371.053,284.013,357.4,352.28,357.4,434.2H417.133z"/>
	<path style="fill:#FD9808;" d="M127,75.8H92.867v162.133H127c28.16,0,51.2-123.733,51.2-162.133H127z"/>
	<path style="fill:#FFDD09;" d="M92.867,434.2V272.067h25.6C138.947,284.013,152.6,352.28,152.6,434.2H92.867z"/>
	<g>
		<path style="fill:#FD9808;" d="M383,75.8h34.133v162.133H383c-28.16,0-51.2-123.733-51.2-162.133H383z"/>
		<path style="fill:#FD9808;" d="M417.133,434.2V272.067h-25.6C371.053,284.013,357.4,352.28,357.4,434.2H417.133z"/>
	</g>
	<path style="fill:#54C9FD;" d="M92.867,434.2h145.067V272.067H92.867V434.2z"/>
	<path d="M127,246.467H92.867c-5.12,0-8.533-3.413-8.533-8.533V75.8c0-5.12,3.413-8.533,8.533-8.533H178.2
		c5.12,0,8.533,3.413,8.533,8.533C186.733,104.813,167.107,246.467,127,246.467z M101.4,229.4H127
		c13.653,0,40.107-86.187,42.667-145.067H101.4V229.4z"/>
	<path style="fill:#FD9808;" d="M92.867,434.2V272.067h25.6C138.947,284.013,152.6,352.28,152.6,434.2H92.867z"/>
	<path d="M152.6,442.733H92.867c-5.12,0-8.533-3.413-8.533-8.533V272.067c0-5.12,3.413-8.533,8.533-8.533h25.6
		c1.707,0,3.413,0,4.267,0.853c28.16,17.067,38.4,102.4,38.4,169.813C161.133,439.32,157.72,442.733,152.6,442.733z M101.4,425.667
		h42.667c-0.853-77.653-14.507-133.12-28.16-145.067H101.4V425.667z"/>
	<path d="M417.133,246.467H383c-40.107,0-59.733-141.653-59.733-170.667c0-5.12,3.413-8.533,8.533-8.533h85.333
		c5.12,0,8.533,3.413,8.533,8.533v162.133C425.667,243.053,422.253,246.467,417.133,246.467z M340.333,84.333
		C342.893,143.213,369.347,229.4,383,229.4h25.6V84.333H340.333z"/>
	<path d="M417.133,442.733H357.4c-5.12,0-8.533-3.413-8.533-8.533c0-67.413,10.24-151.893,38.4-169.813
		c1.707-0.853,2.56-0.853,4.267-0.853h25.6c5.12,0,8.533,3.413,8.533,8.533V434.2C425.667,439.32,422.253,442.733,417.133,442.733z
		 M365.933,425.667H408.6V280.6h-14.507C380.44,292.547,366.787,348.013,365.933,425.667z"/>
	<path d="M451.267,476.867H58.733c-5.12,0-8.533-3.413-8.533-8.533V41.667c0-5.12,3.413-8.533,8.533-8.533h392.533
		c5.12,0,8.533,3.413,8.533,8.533v426.667C459.8,473.453,456.387,476.867,451.267,476.867z M67.267,459.8h375.467V50.2H67.267V459.8
		z"/>
	<path d="M451.267,511H58.733c-14.507,0-25.6-11.093-25.6-25.6v-17.067c0-5.12,3.413-8.533,8.533-8.533h426.667
		c5.12,0,8.533,3.413,8.533,8.533V485.4C476.867,499.907,465.773,511,451.267,511z M50.2,476.867v8.533
		c0,5.12,3.413,8.533,8.533,8.533h392.533c5.12,0,8.533-3.413,8.533-8.533v-8.533H50.2z"/>
	<path d="M451.267,50.2H58.733c-13.653,0-25.6-11.093-25.6-25.6S44.227-1,58.733-1h392.533c14.507,0,25.6,11.093,25.6,25.6
		S465.773,50.2,451.267,50.2z M58.733,16.067c-4.267,0-8.533,4.267-8.533,8.533s3.413,8.533,8.533,8.533h392.533
		c5.12,0,8.533-3.413,8.533-8.533s-3.413-8.533-8.533-8.533H58.733z"/>
	<path d="M41.667,476.867H24.6c-5.12,0-8.533-3.413-8.533-8.533c0-5.12,3.413-8.533,8.533-8.533h17.067
		c5.12,0,8.533,3.413,8.533,8.533C50.2,473.453,46.787,476.867,41.667,476.867z"/>
	<path d="M485.4,476.867h-17.067c-5.12,0-8.533-3.413-8.533-8.533c0-5.12,3.413-8.533,8.533-8.533H485.4
		c5.12,0,8.533,3.413,8.533,8.533C493.933,473.453,490.52,476.867,485.4,476.867z"/>
	<path d="M237.933,246.467H92.867c-5.12,0-8.533-3.413-8.533-8.533V75.8c0-5.12,3.413-8.533,8.533-8.533h145.067
		c5.12,0,8.533,3.413,8.533,8.533v162.133C246.467,243.053,243.053,246.467,237.933,246.467z M101.4,229.4h128V84.333h-128V229.4z"
		/>
	<path d="M417.133,246.467H272.067c-5.12,0-8.533-3.413-8.533-8.533V75.8c0-5.12,3.413-8.533,8.533-8.533h145.067
		c5.12,0,8.533,3.413,8.533,8.533v162.133C425.667,243.053,422.253,246.467,417.133,246.467z M280.6,229.4h128V84.333h-128V229.4z"
		/>
	<path d="M237.933,442.733H92.867c-5.12,0-8.533-3.413-8.533-8.533V272.067c0-5.12,3.413-8.533,8.533-8.533h145.067
		c5.12,0,8.533,3.413,8.533,8.533V434.2C246.467,439.32,243.053,442.733,237.933,442.733z M101.4,425.667h128V280.6h-128V425.667z"
		/>
	<path d="M417.133,442.733H272.067c-5.12,0-8.533-3.413-8.533-8.533V272.067c0-5.12,3.413-8.533,8.533-8.533h145.067
		c5.12,0,8.533,3.413,8.533,8.533V434.2C425.667,439.32,422.253,442.733,417.133,442.733z M280.6,425.667h128V280.6h-128V425.667z"
		/>
</g>
</svg>